<?xml version="1.0" encoding="UTF-8" standalone="no"?>
<!DOCTYPE svg PUBLIC "-//W3C//DTD SVG 1.1//EN"
 "http://www.w3.org/Graphics/SVG/1.1/DTD/svg11.dtd">
<!-- Generated by graphviz version 2.38.0 (20140413.2041)
 -->
<!-- Title: %3 Pages: 1 -->
<svg width="498pt" height="380pt"
 viewBox="0.00 0.00 498.15 380.00" xmlns="http://www.w3.org/2000/svg" xmlns:xlink="http://www.w3.org/1999/xlink">
<g id="graph0" class="graph" transform="scale(1 1) rotate(0) translate(4 376)">
<title>%3</title>
<polygon fill="#333333" stroke="none" points="-4,4 -4,-376 494.152,-376 494.152,4 -4,4"/>
<!-- euph0r14 -->
<g id="node1" class="node"><title>euph0r14</title>
<ellipse fill="#006699" stroke="white" cx="138.743" cy="-102" rx="47.4599" ry="18"/>
<text text-anchor="middle" x="138.743" y="-97.8" font-family="Helvetica,sans-Serif" font-size="14.00" fill="white">euph0r14</text>
</g>
<!-- you&#45;have&#45;just&#45;experienced&#45;things -->
<g id="node2" class="node"><title>you&#45;have&#45;just&#45;experienced&#45;things</title>
<ellipse fill="#006699" stroke="white" cx="182.743" cy="-18" rx="140.726" ry="18"/>
<text text-anchor="middle" x="182.743" y="-13.8" font-family="Helvetica,sans-Serif" font-size="14.00" fill="white">you&#45;have&#45;just&#45;experienced&#45;things</text>
</g>
<!-- you&#45;have&#45;just&#45;experienced&#45;things&#45;&gt;euph0r14 -->
<g id="edge1" class="edge"><title>you&#45;have&#45;just&#45;experienced&#45;things&#45;&gt;euph0r14</title>
<path fill="none" stroke="white" stroke-dasharray="5,2" d="M173.627,-35.9905C167.509,-47.3905 159.341,-62.6143 152.446,-75.4637"/>
<polygon fill="white" stroke="white" points="147.698,-84.3119 148.461,-73.3726 150.062,-79.9061 152.426,-75.5003 152.426,-75.5003 152.426,-75.5003 150.062,-79.9061 156.391,-77.628 147.698,-84.3119 147.698,-84.3119"/>
<text text-anchor="middle" x="181.746" y="-56.4" font-family="Courier,monospace" font-size="12.00" fill="white">4/313</text>
</g>
<!-- sixpenceee -->
<g id="node3" class="node"><title>sixpenceee</title>
<ellipse fill="#006699" stroke="white" cx="258.743" cy="-102" rx="54.6937" ry="18"/>
<text text-anchor="middle" x="258.743" y="-97.8" font-family="Helvetica,sans-Serif" font-size="14.00" fill="white">sixpenceee</text>
</g>
<!-- you&#45;have&#45;just&#45;experienced&#45;things&#45;&gt;sixpenceee -->
<g id="edge2" class="edge"><title>you&#45;have&#45;just&#45;experienced&#45;things&#45;&gt;sixpenceee</title>
<path fill="none" stroke="white" stroke-dasharray="5,2" d="M198.491,-35.9905C209.54,-47.9116 224.464,-64.0141 236.695,-77.2105"/>
<polygon fill="white" stroke="white" points="243.535,-84.5909 233.437,-80.3155 240.136,-80.9237 236.737,-77.2565 236.737,-77.2565 236.737,-77.2565 240.136,-80.9237 240.038,-74.1976 243.535,-84.5909 243.535,-84.5909"/>
<text text-anchor="middle" x="243.746" y="-56.4" font-family="Courier,monospace" font-size="12.00" fill="white">3/313</text>
</g>
<!-- clearlyswiftie -->
<g id="node4" class="node"><title>clearlyswiftie</title>
<ellipse fill="#006699" stroke="white" cx="159.743" cy="-186" rx="60.4635" ry="18"/>
<text text-anchor="middle" x="159.743" y="-181.8" font-family="Helvetica,sans-Serif" font-size="14.00" fill="white">clearlyswiftie</text>
</g>
<!-- sixpenceee&#45;&gt;clearlyswiftie -->
<g id="edge3" class="edge"><title>sixpenceee&#45;&gt;clearlyswiftie</title>
<path fill="none" stroke="white" stroke-dasharray="5,2" d="M217.626,-113.929C179.177,-124.155 127.626,-137.883 127.536,-138 121.751,-145.53 124.834,-154.022 130.948,-161.696"/>
<polygon fill="white" stroke="white" points="137.855,-169.03 127.723,-164.836 134.427,-165.391 130.999,-161.751 130.999,-161.751 130.999,-161.751 134.427,-165.391 134.275,-158.665 137.855,-169.03 137.855,-169.03"/>
<text text-anchor="middle" x="149.347" y="-140.4" font-family="Courier,monospace" font-size="12.00" fill="white">3/1000</text>
</g>
<!-- sixpenceee&#45;&gt;clearlyswiftie -->
<g id="edge13" class="edge"><title>sixpenceee&#45;&gt;clearlyswiftie</title>
<path fill="none" stroke="white" stroke-dasharray="5,2" d="M235.188,-118.29C226.582,-124.166 216.911,-131.12 208.536,-138 199.948,-145.056 191.052,-153.307 183.245,-160.909"/>
<polygon fill="white" stroke="white" points="175.853,-168.227 179.793,-157.994 179.406,-164.709 182.959,-161.192 182.959,-161.192 182.959,-161.192 179.406,-164.709 186.125,-164.39 175.853,-168.227 175.853,-168.227"/>
<text text-anchor="middle" x="230.347" y="-140.4" font-family="Courier,monospace" font-size="12.00" fill="white">3/1000</text>
</g>
<!-- ultrafacts -->
<g id="node9" class="node"><title>ultrafacts</title>
<ellipse fill="#006699" stroke="white" cx="324.743" cy="-186" rx="45.9718" ry="18"/>
<text text-anchor="middle" x="324.743" y="-181.8" font-family="Helvetica,sans-Serif" font-size="14.00" fill="white">ultrafacts</text>
</g>
<!-- sixpenceee&#45;&gt;ultrafacts -->
<g id="edge8" class="edge"><title>sixpenceee&#45;&gt;ultrafacts</title>
<path fill="none" stroke="white" stroke-dasharray="5,2" d="M255.008,-120.259C253.908,-129.698 254.183,-141.22 259.536,-150 264.497,-158.137 272.057,-164.497 280.294,-169.426"/>
<polygon fill="white" stroke="white" points="289.406,-174.23 278.462,-173.547 284.983,-171.898 280.56,-169.567 280.56,-169.567 280.56,-169.567 284.983,-171.898 282.659,-165.586 289.406,-174.23 289.406,-174.23"/>
<text text-anchor="middle" x="281.347" y="-140.4" font-family="Courier,monospace" font-size="12.00" fill="white">3/1000</text>
</g>
<!-- sixpenceee&#45;&gt;ultrafacts -->
<g id="edge14" class="edge"><title>sixpenceee&#45;&gt;ultrafacts</title>
<path fill="none" stroke="white" stroke-dasharray="5,2" d="M282.017,-118.307C289.298,-123.885 296.937,-130.645 302.743,-138 307.579,-144.125 311.662,-151.487 314.947,-158.547"/>
<polygon fill="white" stroke="white" points="318.927,-167.842 310.854,-160.421 316.959,-163.246 314.991,-158.65 314.991,-158.65 314.991,-158.65 316.959,-163.246 319.127,-156.878 318.927,-167.842 318.927,-167.842"/>
<text text-anchor="middle" x="332.347" y="-140.4" font-family="Courier,monospace" font-size="12.00" fill="white">3/1000</text>
</g>
<!-- dailyswiftgifs -->
<g id="node5" class="node"><title>dailyswiftgifs</title>
<ellipse fill="#006699" stroke="white" cx="59.7434" cy="-270" rx="59.9877" ry="18"/>
<text text-anchor="middle" x="59.7434" y="-265.8" font-family="Helvetica,sans-Serif" font-size="14.00" fill="white">dailyswiftgifs</text>
</g>
<!-- clearlyswiftie&#45;&gt;dailyswiftgifs -->
<g id="edge4" class="edge"><title>clearlyswiftie&#45;&gt;dailyswiftgifs</title>
<path fill="none" stroke="white" stroke-dasharray="5,2" d="M139.987,-203.201C124.921,-215.555 103.986,-232.721 87.2778,-246.422"/>
<polygon fill="white" stroke="white" points="79.4591,-252.833 84.3384,-243.013 83.3255,-249.663 87.1918,-246.492 87.1918,-246.492 87.1918,-246.492 83.3255,-249.663 90.0452,-249.972 79.4591,-252.833 79.4591,-252.833"/>
<text text-anchor="middle" x="137.347" y="-224.4" font-family="Courier,monospace" font-size="12.00" fill="white">21/924</text>
</g>
<!-- bllankspace -->
<g id="node6" class="node"><title>bllankspace</title>
<ellipse fill="#006699" stroke="white" cx="194.743" cy="-270" rx="56.6234" ry="18"/>
<text text-anchor="middle" x="194.743" y="-265.8" font-family="Helvetica,sans-Serif" font-size="14.00" fill="white">bllankspace</text>
</g>
<!-- clearlyswiftie&#45;&gt;bllankspace -->
<g id="edge5" class="edge"><title>clearlyswiftie&#45;&gt;bllankspace</title>
<path fill="none" stroke="white" stroke-dasharray="5,2" d="M166.995,-203.99C171.735,-215.095 178.024,-229.828 183.415,-242.46"/>
<polygon fill="white" stroke="white" points="187.501,-252.031 179.436,-244.601 185.538,-247.433 183.575,-242.834 183.575,-242.834 183.575,-242.834 185.538,-247.433 187.714,-241.067 187.501,-252.031 187.501,-252.031"/>
<text text-anchor="middle" x="201.347" y="-224.4" font-family="Courier,monospace" font-size="12.00" fill="white">20/924</text>
</g>
<!-- alltaywell -->
<g id="node7" class="node"><title>alltaywell</title>
<ellipse fill="#006699" stroke="white" cx="78.7434" cy="-354" rx="45.9718" ry="18"/>
<text text-anchor="middle" x="78.7434" y="-349.8" font-family="Helvetica,sans-Serif" font-size="14.00" fill="white">alltaywell</text>
</g>
<!-- bllankspace&#45;&gt;alltaywell -->
<g id="edge6" class="edge"><title>bllankspace&#45;&gt;alltaywell</title>
<path fill="none" stroke="white" stroke-dasharray="5,2" d="M170.597,-286.358C161.355,-292.357 150.771,-299.375 141.335,-306 129.839,-314.071 117.421,-323.287 106.701,-331.407"/>
<polygon fill="white" stroke="white" points="98.5181,-337.642 103.745,-328.002 102.495,-334.612 106.473,-331.582 106.473,-331.582 106.473,-331.582 102.495,-334.612 109.2,-335.161 98.5181,-337.642 98.5181,-337.642"/>
<text text-anchor="middle" x="166.947" y="-308.4" font-family="Courier,monospace" font-size="12.00" fill="white">68/1000</text>
</g>
<!-- dailyshaym -->
<g id="node8" class="node"><title>dailyshaym</title>
<ellipse fill="#006699" stroke="white" cx="196.743" cy="-354" rx="54.1833" ry="18"/>
<text text-anchor="middle" x="196.743" y="-349.8" font-family="Helvetica,sans-Serif" font-size="14.00" fill="white">dailyshaym</text>
</g>
<!-- bllankspace&#45;&gt;dailyshaym -->
<g id="edge7" class="edge"><title>bllankspace&#45;&gt;dailyshaym</title>
<path fill="none" stroke="white" stroke-dasharray="5,2" d="M195.168,-288.39C195.432,-299.226 195.777,-313.399 196.078,-325.709"/>
<polygon fill="white" stroke="white" points="196.327,-335.916 191.584,-326.029 196.205,-330.918 196.083,-325.919 196.083,-325.919 196.083,-325.919 196.205,-330.918 200.581,-325.809 196.327,-335.916 196.327,-335.916"/>
<text text-anchor="middle" x="221.947" y="-308.4" font-family="Courier,monospace" font-size="12.00" fill="white">39/1000</text>
</g>
<!-- ultrafacts&#45;&gt;sixpenceee -->
<g id="edge12" class="edge"><title>ultrafacts&#45;&gt;sixpenceee</title>
<path fill="none" stroke="white" stroke-dasharray="5,2" d="M351.532,-171.187C365.299,-162.217 377.518,-150 368.743,-138 357.665,-122.849 339.97,-114.099 321.982,-109.095"/>
<polygon fill="white" stroke="white" points="311.999,-106.683 322.776,-104.658 316.859,-107.858 321.719,-109.032 321.719,-109.032 321.719,-109.032 316.859,-107.858 320.662,-113.406 311.999,-106.683 311.999,-106.683"/>
<text text-anchor="middle" x="393.347" y="-140.4" font-family="Courier,monospace" font-size="12.00" fill="white">4/1000</text>
</g>
<!-- ultralifetips -->
<g id="node10" class="node"><title>ultralifetips</title>
<ellipse fill="#006699" stroke="white" cx="381.743" cy="-270" rx="52.2537" ry="18"/>
<text text-anchor="middle" x="381.743" y="-265.8" font-family="Helvetica,sans-Serif" font-size="14.00" fill="white">ultralifetips</text>
</g>
<!-- ultrafacts&#45;&gt;ultralifetips -->
<g id="edge9" class="edge"><title>ultrafacts&#45;&gt;ultralifetips</title>
<path fill="none" stroke="white" stroke-dasharray="5,2" d="M320.1,-204.127C318.527,-213.525 318.265,-225.051 323.335,-234 327.061,-240.576 332.569,-246.051 338.737,-250.564"/>
<polygon fill="white" stroke="white" points="347.451,-256.135 336.602,-254.54 343.238,-253.442 339.026,-250.748 339.026,-250.748 339.026,-250.748 343.238,-253.442 341.45,-246.957 347.451,-256.135 347.451,-256.135"/>
<text text-anchor="middle" x="348.947" y="-224.4" font-family="Courier,monospace" font-size="12.00" fill="white">11/1000</text>
</g>
<!-- ultralifetips&#45;&gt;ultrafacts -->
<g id="edge10" class="edge"><title>ultralifetips&#45;&gt;ultrafacts</title>
<path fill="none" stroke="white" stroke-dasharray="5,2" d="M381.932,-251.787C381.304,-242.362 379.279,-230.838 373.743,-222 370.127,-216.226 365.176,-211.123 359.804,-206.725"/>
<polygon fill="white" stroke="white" points="351.74,-200.788 362.461,-203.093 355.767,-203.752 359.793,-206.716 359.793,-206.716 359.793,-206.716 355.767,-203.752 357.125,-210.34 351.74,-200.788 351.74,-200.788"/>
<text text-anchor="middle" x="404.947" y="-224.4" font-family="Courier,monospace" font-size="12.00" fill="white">37/1000</text>
</g>
<!-- marge&#45;of&#45;house&#45;simpson -->
<g id="node11" class="node"><title>marge&#45;of&#45;house&#45;simpson</title>
<ellipse fill="#006699" stroke="white" cx="381.743" cy="-354" rx="108.317" ry="18"/>
<text text-anchor="middle" x="381.743" y="-349.8" font-family="Helvetica,sans-Serif" font-size="14.00" fill="white">marge&#45;of&#45;house&#45;simpson</text>
</g>
<!-- ultralifetips&#45;&gt;marge&#45;of&#45;house&#45;simpson -->
<g id="edge11" class="edge"><title>ultralifetips&#45;&gt;marge&#45;of&#45;house&#45;simpson</title>
<path fill="none" stroke="white" stroke-dasharray="5,2" d="M381.743,-288.39C381.743,-299.226 381.743,-313.399 381.743,-325.709"/>
<polygon fill="white" stroke="white" points="381.743,-335.916 377.243,-325.916 381.743,-330.916 381.743,-325.916 381.743,-325.916 381.743,-325.916 381.743,-330.916 386.243,-325.916 381.743,-335.916 381.743,-335.916"/>
<text text-anchor="middle" x="403.347" y="-308.4" font-family="Courier,monospace" font-size="12.00" fill="white">1/1000</text>
</g>
</g>
</svg>
